<svg width="31" height="30" viewBox="0 0 31 30" fill="none" xmlns="http://www.w3.org/2000/svg">
<path fill-rule="evenodd" clip-rule="evenodd" d="M30.1034 15.0001C30.1034 23.2843 23.3877 30.0001 15.1034 30.0001C11.8208 30.0001 8.78446 28.9456 6.31464 27.1569C13.7591 25.7996 25.5318 21.9185 30.0732 14.0391C30.0932 14.3569 30.1034 14.6773 30.1034 15.0001Z" fill="#1F1F1F"/>
<path fill-rule="evenodd" clip-rule="evenodd" d="M0.103455 15.0001C0.103455 18.2946 1.16553 21.341 2.96597 23.8156C3.97233 23.8027 4.9537 23.7491 5.9099 23.6593V14.6199C5.9099 14.0282 6.3896 13.5485 6.98133 13.5485H9.67719C10.2689 13.5485 10.7486 14.0282 10.7486 14.6199V22.8679C11.4148 22.7112 12.0659 22.5379 12.7019 22.35C12.6902 22.2866 12.6841 22.2213 12.6841 22.1545V10.749C12.6841 10.1572 13.1638 9.67754 13.7555 9.67754H16.4514C17.0431 9.67754 17.5228 10.1572 17.5228 10.749V20.5464C18.2078 20.2343 18.8692 19.9083 19.5071 19.572C19.4754 19.4708 19.4583 19.363 19.4583 19.2513V7.84574C19.4583 7.25401 19.938 6.77431 20.5297 6.77431H23.2256C23.8173 6.77431 24.297 7.25401 24.297 7.84574V16.6001C26.6589 14.9017 28.4951 13.2162 29.7906 11.9376C28.3767 5.12204 22.3382 0.00012207 15.1035 0.00012207C6.81918 0.00012207 0.103455 6.71585 0.103455 15.0001Z" fill="#1F1F1F"/>
</svg>
